<svg width="1440" height="800" viewBox="0 0 1440 800" fill="none" xmlns="http://www.w3.org/2000/svg">
<path d="M20 671.454C52.8953 542.855 56.962 230.53 167.939 253.485C278.915 276.439 262.468 518.364 319.944 514.84C377.421 511.315 328.62 413.352 396.218 418.504C463.816 423.655 414.473 567.436 496.711 563.912C578.859 560.387 554.278 469.564 648.717 492.157C743.155 514.75 682.606 563.912 776.593 563.912C726.798 612.984 595.668 562.918 575.335 630.697C565.213 664.315 283.615 713.296 205.533 708.145C127.452 702.994 124.108 652.476 20 671.454Z" fill="url(#paint0_linear)"/>
<defs>
<linearGradient id="paint0_linear" x1="398.297" y1="708.557" x2="398.297" y2="252.239" gradientUnits="userSpaceOnUse">
<stop stop-color="#4E6880" stop-opacity="0.1"/>
<stop offset="0.4005" stop-color="#646A72" stop-opacity="0.6"/>
<stop offset="0.8611" stop-color="#696A6F"/>
</linearGradient>
</defs>
</svg>
