<svg width="1440" height="800" viewBox="0 0 1440 800" fill="none" xmlns="http://www.w3.org/2000/svg">
<path d="M675.797 658.441C731.104 667.117 751.98 642.987 764.181 642.987C776.381 642.987 793.913 656.091 806.113 655.188C818.313 654.284 837.562 618.226 853.287 618.226C869.012 618.226 879.495 625.817 888.261 625.817C897.027 625.817 952.967 503.996 1003.67 505.08C1054.36 506.165 1054.55 555.598 1077.23 559.393C1099.91 563.189 1111.39 350.635 1207.18 365.908C1302.89 381.18 1281.29 587.409 1326.38 620.304C1371.48 653.2 1418.11 515.202 1408.8 742.668C1331.63 760.019 1343.73 737.065 1305.42 735.438C1243.24 732.727 1174.92 730.919 1119.79 724.864C1065.75 718.9 1045.78 701.639 995.352 696.307C952.606 691.788 871.452 708.869 835.394 705.163C740.865 695.222 675.797 658.441 675.797 658.441Z" fill="url(#paint0_linear)"/>
<defs>
<linearGradient id="paint0_linear" x1="1033.15" y1="747.169" x2="1107.41" y2="370.424" gradientUnits="userSpaceOnUse">
<stop stop-color="#4E6880" stop-opacity="0.1"/>
<stop offset="0.3588" stop-color="#646A72" stop-opacity="0.8"/>
<stop offset="0.8611" stop-color="#696A6F"/>
</linearGradient>
</defs>
</svg>
