<svg width="1440" height="800" viewBox="0 0 1440 800" fill="none" xmlns="http://www.w3.org/2000/svg">
<g clip-path="url(#clip0)">
<path d="M1225.4 110H1064.7C1056.1 110 1049.2 114.3 1049.2 119.7C1049.2 125.1 1056.1 129.4 1064.7 129.4H1272C1280.5 129.4 1287.4 133.7 1287.4 139.1C1287.4 144.4 1280.5 148.8 1272 148.8H995.3C985.2 148.8 977 153.9 977 160.2C977 166.5 985.2 171.6 995.3 171.6H1137.4C1145.1 171.6 1151.4 175.5 1151.4 180.3C1151.4 185.1 1145.2 189 1137.4 189H1047.8" stroke="url(#paint0_linear)" stroke-width="4.7011" stroke-miterlimit="10" stroke-linecap="round" stroke-linejoin="round"/>
</g>
<defs>
<linearGradient id="paint0_linear" x1="974.701" y1="149.512" x2="1289.83" y2="149.512" gradientUnits="userSpaceOnUse">
<stop stop-color="#4E6880"/>
<stop offset="0.2688" stop-color="#6C8A89" stop-opacity="0.7437"/>
<stop offset="0.4468" stop-color="#7B9B8D" stop-opacity="0.5739"/>
<stop offset="0.5476" stop-color="#8AAC91" stop-opacity="0.6969"/>
<stop offset="0.6595" stop-color="#93B693" stop-opacity="0.8333"/>
<stop offset="0.7963" stop-color="#96B994"/>
</linearGradient>
<clipPath id="clip0">
<rect width="1440" height="800" fill="white"/>
</clipPath>
</defs>
</svg>
