<svg width="1440" height="800" viewBox="0 0 1440 800" fill="none" xmlns="http://www.w3.org/2000/svg">
<g clip-path="url(#clip0)">
<path d="M1305.4 569.231H1144.7C1136.1 569.231 1129.2 573.531 1129.2 578.931C1129.2 584.331 1136.1 588.632 1144.7 588.632H1352C1360.5 588.632 1367.4 592.932 1367.4 598.332C1367.4 603.632 1360.5 608.031 1352 608.031H1075.3C1065.2 608.031 1057 613.131 1057 619.431C1057 625.731 1065.2 630.832 1075.3 630.832H1217.4C1225.1 630.832 1231.4 634.731 1231.4 639.531C1231.4 644.331 1225.2 648.231 1217.4 648.231H1127.8" stroke="url(#paint0_linear)" stroke-width="4.7011" stroke-miterlimit="10" stroke-linecap="round" stroke-linejoin="round"/>
</g>
<defs>
<linearGradient id="paint0_linear" x1="1054.7" y1="608.744" x2="1369.83" y2="608.744" gradientUnits="userSpaceOnUse">
<stop stop-color="#4E6880"/>
<stop offset="0.2688" stop-color="#6C8A89" stop-opacity="0.7437"/>
<stop offset="0.4468" stop-color="#7B9B8D" stop-opacity="0.5739"/>
<stop offset="0.5476" stop-color="#8AAC91" stop-opacity="0.6969"/>
<stop offset="0.6595" stop-color="#93B693" stop-opacity="0.8333"/>
<stop offset="0.7963" stop-color="#96B994"/>
</linearGradient>
<clipPath id="clip0">
<rect width="1440" height="800" fill="white"/>
</clipPath>
</defs>
</svg>
