<svg width="800" height="800" viewBox="0 0 800 800" fill="none" xmlns="http://www.w3.org/2000/svg">
<g clip-path="url(#clip0)">
<path d="M400 800C293.123 800 192.718 758.367 117.175 682.825C41.6329 607.282 0 506.804 0 400C0 293.196 41.6329 192.718 117.175 117.175C192.718 41.6329 293.196 0 400 0C506.804 0 607.282 41.6329 682.825 117.175C758.367 192.718 800 293.196 800 400C800 506.804 758.367 607.282 682.825 682.825C607.282 758.367 506.804 800 400 800ZM400 18.3155C189.555 18.3155 18.3156 189.555 18.3156 400C18.3156 610.445 189.555 781.684 400 781.684C610.445 781.684 781.685 610.445 781.685 400C781.685 189.555 610.445 18.3155 400 18.3155Z" fill="#999999"/>
<path d="M190.647 76.6575V207.264H146.576V109.971C143.927 112.299 141.359 114.627 138.79 116.955V164.076H95.4416C93.4347 166.645 91.5082 169.294 89.5816 171.863H91.3476V207.104H66.4625C64.9373 209.672 63.4923 212.241 62.0474 214.89H91.2673V263.376H39.6508C38.6875 265.945 37.7242 268.594 36.7609 271.163H59.3181V335.382H19.9836C19.5822 337.951 19.1808 340.6 18.7794 343.169H59.3181V369.659H15.8093C15.6487 372.228 15.4079 374.877 15.3276 377.446H59.3984V412.125H14.9263C15.0065 414.694 15.0868 417.343 15.2474 419.911H59.3984V446.402H17.5753C17.8964 448.971 18.2175 451.62 18.5386 454.189H59.3984V518.488H33.4697C34.2724 521.138 35.1554 523.706 36.0385 526.275H91.3476V574.761H56.7493C58.1139 577.41 59.4786 579.979 60.8433 582.548H91.2673V617.788H82.4371C84.2032 620.437 86.0495 623.006 87.9761 625.575H138.79V682.73C141.359 685.138 144.008 687.466 146.576 689.714V582.467H190.647V723.028C194.741 725.677 198.915 728.326 203.17 730.815V68.8708C198.915 71.3594 194.741 74.0084 190.647 76.6575ZM99.054 171.943H138.79V207.184H99.1342V171.943H99.054ZM67.185 271.323H91.3476V335.543H67.185V271.323ZM67.185 518.649V454.349H91.3476V518.649H67.185ZM99.054 618.029V582.788H138.79V618.029H99.054ZM99.054 574.922V446.643H67.1047V420.152H168.813V412.366H67.185V377.687H168.893V369.9H67.185V343.41H99.1342V215.051H190.647V574.922H99.054Z" fill="#999999"/>
<path d="M740.608 419.35V384.671H785C784.92 382.102 784.759 379.453 784.599 376.884H740.608V350.394H782.11C781.789 347.825 781.388 345.176 781.066 342.607H740.608V278.307H765.573C764.69 275.738 763.807 273.089 762.924 270.521H708.659V222.035H741.652C740.287 219.386 738.922 216.817 737.477 214.248H708.659V179.008H715.402C713.556 176.359 711.709 173.79 709.783 171.221H661.217V117.036C658.648 114.627 655.999 112.299 653.43 110.052V214.328H600.288V70.8777C596.274 68.4695 592.261 66.0613 588.167 63.8136V736.113C592.261 733.785 596.274 731.457 600.288 729.049V589.692H653.43V689.955C656.079 687.627 658.648 685.299 661.217 682.971V632.8H706.812C708.739 630.231 710.666 627.662 712.592 625.013H708.659V589.772H735.23C736.675 587.204 738.12 584.635 739.565 581.986H708.659V533.5H761.399C762.362 530.931 763.245 528.282 764.209 525.713H740.608V461.413H780.424C780.826 458.845 781.227 456.196 781.548 453.627H740.608V427.136H784.358C784.518 424.567 784.679 421.918 784.839 419.35H740.608V419.35ZM700.872 179.008V214.248H661.217V179.008H700.872ZM700.872 625.013H661.217V589.772H700.872V625.013ZM732.821 525.713H708.659V461.413H732.821V525.713ZM732.821 376.884H631.114V384.671H732.821V419.35H631.114V427.136H732.821V453.627H700.872V581.986H600.208V222.035H700.872V350.394H732.821V376.884ZM732.821 342.607H708.659V278.307H732.821V342.607Z" fill="#999999"/>
</g>
<defs>
<clipPath id="clip0">
<rect width="800" height="800" fill="white"/>
</clipPath>
</defs>
</svg>
