<svg width="800" height="800" viewBox="0 0 800 800" fill="none" xmlns="http://www.w3.org/2000/svg">
<g clip-path="url(#clip0)">
<path d="M400 800C293.123 800 192.718 758.367 117.175 682.825C41.6329 607.282 0 506.804 0 400C0 293.196 41.6329 192.718 117.175 117.175C192.718 41.6329 293.196 0 400 0C506.804 0 607.282 41.6329 682.825 117.175C758.367 192.718 800 293.196 800 400C800 506.804 758.367 607.282 682.825 682.825C607.282 758.367 506.804 800 400 800ZM400 18.3155C189.555 18.3155 18.3156 189.555 18.3156 400C18.3156 610.445 189.555 781.684 400 781.684C610.445 781.684 781.685 610.445 781.685 400C781.685 189.555 610.445 18.3155 400 18.3155Z" fill="#999999"/>
<path d="M752.777 385.951C752.703 383.597 752.556 381.17 752.409 378.816C751.894 370.651 751.159 362.56 750.129 354.542C749.835 352.188 749.467 349.761 749.173 347.407C746.157 327.179 741.376 307.466 735.05 288.488C734.241 286.135 733.431 283.707 732.622 281.353C727.179 266.054 720.633 251.195 713.13 236.925C711.879 234.498 710.629 232.144 709.305 229.79C703.126 218.61 696.433 207.871 689.077 197.499C687.385 195.072 685.693 192.718 683.928 190.364C670.688 172.416 655.756 155.793 639.426 140.714C637.073 138.507 634.645 136.374 632.291 134.314C617.139 121.074 600.809 109.084 583.597 98.4921C579.919 96.2854 576.241 94.0787 572.49 92.0191C521.442 63.3321 462.67 47.0026 400.074 47.0026C334.241 47.0026 272.453 65.0974 219.64 96.6532C215.741 98.9334 211.916 101.361 208.165 103.788C193.968 112.983 180.508 123.207 167.782 134.314C165.355 136.447 163.001 138.58 160.647 140.714C146.23 154.027 132.99 168.444 121 183.891C119.161 186.245 117.396 188.672 115.631 191.026C107.981 201.398 100.919 212.21 94.4465 223.317C93.049 225.671 91.7249 228.025 90.4009 230.452C82.5304 244.722 75.6896 259.507 69.8787 274.88C68.996 277.234 68.1133 279.662 67.2306 282.015C60.4634 300.993 55.3145 320.633 51.9309 340.861C51.5631 343.214 51.1953 345.642 50.8276 347.996C49.6507 356.013 48.6944 364.104 48.106 372.269C47.9588 374.623 47.7382 377.05 47.6646 379.404C47.2968 386.171 47.0762 393.012 47.0762 399.853C47.0762 403.604 47.1497 407.429 47.2233 411.181C47.2968 413.534 47.3704 415.962 47.5175 418.316C47.9589 426.48 48.6209 434.572 49.6506 442.589C49.9449 444.943 50.2391 447.37 50.5333 449.724C53.402 469.952 58.0361 489.665 64.2148 508.643C64.9504 511.07 65.7595 513.424 66.5686 515.778C71.8647 531.078 78.2641 545.936 85.5462 560.206C86.7967 562.633 88.0471 564.987 89.2976 567.341C95.3292 578.448 101.949 589.261 109.084 599.632C110.702 602.06 112.394 604.413 114.16 606.767C127.915 625.745 143.509 643.325 160.721 659.139C163.075 661.346 165.502 663.479 167.856 665.539C180.508 676.646 194.042 686.87 208.238 696.065C211.99 698.492 215.815 700.919 219.713 703.2C272.527 734.755 334.241 752.85 400.147 752.85C462.744 752.85 521.515 736.521 572.564 707.834C576.315 705.701 579.993 703.567 583.671 701.361C600.956 690.769 617.212 678.853 632.365 665.539C634.792 663.406 637.146 661.273 639.5 659.139C654.726 645.09 668.702 629.717 681.28 613.167C683.045 610.813 684.811 608.459 686.576 606.032C694.079 595.66 700.993 584.847 707.393 573.74C708.717 571.386 710.041 569.033 711.365 566.605C719.014 552.335 725.782 537.551 731.445 522.177C732.328 519.823 733.137 517.396 734.02 515.042C740.566 496.065 745.568 476.425 748.878 456.124C749.246 453.77 749.614 451.342 749.908 448.989C751.011 440.971 751.894 432.88 752.483 424.715C752.63 422.361 752.777 419.934 752.924 417.58C753.218 411.695 753.365 405.811 753.365 399.853C752.998 395.292 752.924 390.585 752.777 385.951ZM742.994 424.862C742.405 433.027 741.523 441.118 740.419 449.136C740.052 451.563 739.684 453.917 739.316 456.271C736.006 476.572 730.857 496.212 724.09 515.189C723.281 517.543 722.398 519.971 721.442 522.324C715.557 537.698 708.643 552.556 700.699 566.752C699.375 569.18 697.977 571.534 696.58 573.887C692.24 581.243 687.679 588.452 682.825 595.439C680.544 598.823 678.117 602.06 675.69 605.37C675.469 605.664 675.248 605.958 675.028 606.252C673.262 608.68 671.35 611.033 669.511 613.387C660.169 625.156 650.092 636.263 639.353 646.708C636.999 648.989 634.645 651.269 632.218 653.476C617.139 667.304 600.809 679.809 583.523 690.769C579.846 693.049 576.168 695.329 572.416 697.462C521.736 726.958 462.817 743.876 400 743.876C333.873 743.876 272.085 725.12 219.566 692.681C215.668 690.327 211.916 687.826 208.091 685.325C193.821 675.69 180.36 665.024 167.709 653.476C165.281 651.269 162.928 648.989 160.574 646.708C147.849 634.351 136.153 621.037 125.414 606.914C122.545 603.163 119.823 599.338 117.102 595.439C110.85 586.392 105.039 577.124 99.669 567.488C98.345 565.134 97.021 562.707 95.7705 560.353C88.2678 546.083 81.6477 531.298 76.2045 515.925C75.3219 513.571 74.5127 511.144 73.7036 508.79C67.3777 489.812 62.6701 470.173 59.6543 449.871C59.2865 447.518 58.9923 445.09 58.6981 442.736C57.7418 434.719 57.0063 426.627 56.565 418.463C56.4914 416.109 56.3443 413.682 56.2707 411.328C56.1236 407.576 56.1236 403.825 56.1236 400C56.1236 393.159 56.3443 386.318 56.7121 379.551C56.8592 377.124 57.0063 374.77 57.227 372.416C57.889 364.252 58.8452 356.16 60.0221 348.143C60.3899 345.715 60.7577 343.362 61.199 341.008C64.7297 320.706 70.0258 301.067 76.9401 282.163C77.8228 279.735 78.7054 277.381 79.6617 275.028C85.6933 259.654 92.7547 244.796 100.846 230.599C102.17 228.172 103.568 225.818 105.039 223.465C108.864 217.065 112.909 210.813 117.175 204.708C119.456 201.324 121.883 198.088 124.31 194.777C125.193 193.601 126.149 192.35 127.032 191.173C128.871 188.746 130.783 186.392 132.622 184.038C141.302 173.299 150.644 163.075 160.574 153.439C162.928 151.159 165.281 148.878 167.709 146.672C180.36 135.123 193.821 124.458 208.091 114.822C211.843 112.247 215.668 109.82 219.566 107.466C272.012 74.954 333.873 56.1971 400 56.1971C462.817 56.1971 521.736 73.1151 572.416 102.611C576.168 104.744 579.846 107.025 583.523 109.305C600.883 120.265 617.212 132.769 632.218 146.598C634.645 148.805 636.999 151.085 639.353 153.365C651.195 164.914 662.302 177.271 672.38 190.438C675.984 195.072 679.441 199.853 682.825 204.708C688.489 212.872 693.785 221.258 698.713 229.937C700.037 232.291 701.434 234.719 702.685 237.072C710.408 251.342 717.102 266.127 722.766 281.501C723.648 283.854 724.458 286.282 725.267 288.636C731.813 307.613 736.668 327.253 739.831 347.554C740.199 349.908 740.567 352.335 740.861 354.689C741.891 362.707 742.7 370.798 743.215 378.963C743.362 381.317 743.435 383.744 743.582 386.098C743.803 390.732 743.877 395.439 743.877 400.147C743.877 406.105 743.729 411.99 743.435 417.874C743.288 420.081 743.141 422.508 742.994 424.862Z" fill="#999999"/>
<path d="M208.165 103.715V223.391H167.782V134.241C165.355 136.374 163.001 138.507 160.647 140.64V183.818H120.927C119.088 186.171 117.323 188.599 115.557 190.953H117.175V223.244H94.3729C92.9753 225.598 91.6513 227.951 90.3273 230.379H117.102V274.807H69.805C68.9224 277.161 68.0397 279.588 67.157 281.942H87.8264V340.787H51.7837C51.4159 343.141 51.0481 345.568 50.6804 347.922H87.8264V372.196H47.9588C47.8116 374.549 47.591 376.977 47.5174 379.331H87.8999V411.107H47.1497C47.2232 413.461 47.2968 415.888 47.4439 418.242H87.8999V442.516H49.577C49.8712 444.869 50.1655 447.297 50.4597 449.651H87.8999V508.569H64.1412C64.8767 510.997 65.6859 513.35 66.495 515.704H117.175V560.132H85.4726C86.723 562.56 87.9735 564.914 89.2239 567.267H117.102V599.559H109.011C110.629 601.986 112.321 604.34 114.086 606.694H160.647V659.066C163.001 661.272 165.428 663.406 167.782 665.465V567.194H208.165V695.991C211.916 698.419 215.741 700.846 219.64 703.126V96.5796C215.741 98.8598 211.916 101.287 208.165 103.715ZM124.237 191.026H160.647V223.317H124.31V191.026H124.237ZM95.0349 282.089H117.175V340.934H95.0349V282.089ZM95.0349 508.716V449.798H117.175V508.716H95.0349ZM124.237 599.779V567.488H160.647V599.779H124.237ZM124.237 560.279V442.736H94.9614V418.463H188.157V411.328H95.0349V379.551H188.231V372.416H95.0349V348.143H124.31V230.526H208.165V560.279H124.237Z" fill="#999999"/>
<path d="M712.1 417.727V385.951H752.777C752.703 383.597 752.556 381.17 752.409 378.816H712.1V354.542H750.129C749.834 352.188 749.467 349.761 749.172 347.407H712.1V288.488H734.976C734.167 286.135 733.358 283.707 732.549 281.353H682.824V236.925H713.056C711.806 234.498 710.555 232.144 709.231 229.79H682.824V197.499H689.003C687.311 195.072 685.62 192.718 683.854 190.364H639.353V140.713C636.999 138.507 634.571 136.374 632.218 134.314V229.864H583.523V98.4185C579.845 96.2118 576.168 94.0051 572.416 91.9456V707.981C576.168 705.848 579.845 703.715 583.523 701.508V573.814H632.218V665.686C634.645 663.553 636.999 661.42 639.353 659.287V613.314H681.133C682.898 610.96 684.663 608.606 686.429 606.179H682.824V573.888H707.172C708.496 571.534 709.82 569.18 711.144 566.752H682.824V522.324H731.151C732.034 519.971 732.843 517.543 733.726 515.189H712.1V456.271H748.584C748.952 453.917 749.319 451.49 749.614 449.136H712.1V424.862H752.188C752.335 422.508 752.482 420.081 752.63 417.727H712.1V417.727ZM675.689 197.499V229.79H639.353V197.499H675.689ZM675.689 606.179H639.353V573.888H675.689V606.179ZM704.965 515.189H682.824V456.271H704.965V515.189ZM704.965 378.816H611.769V385.951H704.965V417.727H611.769V424.862H704.965V449.136H675.689V566.752H583.45V236.925H675.689V354.542H704.965V378.816ZM704.965 347.407H682.824V288.488H704.965V347.407Z" fill="#999999"/>
</g>
<defs>
<clipPath id="clip0">
<rect width="800" height="800" fill="white"/>
</clipPath>
</defs>
</svg>
