<svg width="800" height="800" viewBox="0 0 800 800" fill="none" xmlns="http://www.w3.org/2000/svg">
<path d="M565.702 800H234.298L0 565.725V234.275L234.298 0H565.702L800 234.275V565.646L565.702 800ZM242.882 779.368H557.196L779.445 557.141V242.859L557.196 20.5532H242.882L20.6339 242.78V557.063L242.882 779.368Z" fill="#A3A8A4"/>
<path d="M208.677 53.9501V280.358H138.64V123.98L129.643 132.977V173.901H93.6539V168.962L79.717 182.897H84.7448V234.406H28.2034L20.0002 242.608V243.402H38.2593V280.358H20.0002V289.354H38.2593V320.841H20.0002V329.838H38.2593V470.251H20.0002V479.247H38.2593V510.646H20.0002V519.642H38.2593V556.598H20.0002V557.392L28.2034 565.594H84.7448V617.103H79.717L93.6539 631.038V626.011H129.643V667.023L138.64 676.02V519.642H208.677V746.05L226.23 763.602V36.3984L208.677 53.9501ZM93.742 182.897H129.731V280.358H93.742V182.897ZM47.2564 243.402H84.7448V280.358H47.2564V243.402ZM47.2564 289.266H129.731V320.753H47.2564V289.266ZM47.2564 479.247H129.731V510.646H47.2564V479.247ZM47.2564 556.598V519.642H84.7448V556.598H47.2564ZM93.742 617.103V519.642H129.731V617.103H93.742ZM138.64 510.646V470.251H47.1681V329.749H138.64V289.354H208.677V510.734H138.64V510.646Z" fill="#A3A8A4"/>
<path d="M780 243.402V242.608L771.797 234.406H715.256V182.897H720.283L706.346 168.962V173.901H670.358V132.888L661.36 123.892V280.269H591.323V53.9501L573.77 36.3984V763.602L591.323 746.05V519.642H661.36V676.02L670.358 667.023V626.011H706.346V631.038L720.283 617.103H715.256V565.594H771.797L780 557.392V556.598H761.741V519.642H780V510.646H761.741V479.247H780V470.251H761.741V329.749H780V320.753H761.741V289.266H780V280.269H761.741V243.314H780V243.402ZM706.346 182.897V280.358H670.358V182.897H706.346ZM706.346 617.103H670.358V519.642H706.346V617.103ZM752.832 556.598H715.344V519.642H752.832V556.598ZM752.832 510.646H670.358V479.247H752.832V510.646ZM752.832 470.251H661.36V510.646H591.323V289.266H661.36V329.661H752.832V470.251ZM752.832 320.753H670.358V289.266H752.832V320.753ZM752.832 280.358H715.344V243.402H752.832V280.358Z" fill="#A3A8A4"/>
</svg>
