<svg width="800" height="800" viewBox="0 0 800 800" fill="none" xmlns="http://www.w3.org/2000/svg">
<path d="M565.702 800H234.298L0 565.725V234.275L234.298 0H565.702L800 234.275V565.646L565.702 800ZM242.882 779.368H557.196L779.445 557.141V242.859L557.196 20.5532H242.882L20.6339 242.78V557.063L242.882 779.368Z" fill="#999999"/>
<path d="M686.041 206.162L673.597 193.72L641.465 161.591L633.432 153.558L570.9 91.0325L540.579 60.7146H259.5L244.851 75.3617L229.179 91.0325L166.647 153.558L158.614 161.591L126.482 193.72L114.038 206.162L68.0448 252.151L60.7207 259.474V540.526L68.0448 547.849L114.038 593.838L229.179 708.967L244.851 724.638L259.5 739.285H540.579L555.228 724.638L673.519 606.359L685.962 593.917L731.955 547.928L739.279 540.604V259.553L686.041 206.162ZM729.041 263.727V536.273L725.497 539.817L717.464 547.849L673.597 591.712L671.471 593.838L663.438 601.87L641.386 623.92L633.353 631.952L570.821 694.478L555.149 710.149L536.247 729.048H263.674L229.1 694.478L166.568 631.952L70.9589 536.352V263.805L74.5029 260.262L82.536 252.23L118.527 216.242L126.56 208.209L136.641 198.13L158.693 176.08L166.726 168.048L229.258 105.522L244.93 89.8513L263.832 70.9518H536.405L570.979 105.522L633.511 168.048L641.544 176.08L671.628 206.162L673.676 208.209L681.709 216.242L729.041 263.727Z" fill="#999999"/>
<path d="M229.179 91.0325V293.178H166.647V153.558L158.614 161.591V198.13H126.482V193.72L114.038 206.162H118.527V252.151H68.0448L60.7207 259.474V260.183H77.0231V293.178H60.7207V301.211H77.0231V329.324H60.7207V337.356H77.0231V462.723H60.7207V470.755H77.0231V498.789H60.7207V506.822H77.0231V539.817H60.7207V540.526L68.0448 547.849H118.527V593.838H114.038L126.482 606.28V601.792H158.614V638.409L166.647 646.442V506.822H229.179V708.967L244.851 724.638V75.3617L229.179 91.0325ZM126.56 206.162H158.693V293.178H126.56V206.162ZM85.0561 260.183H118.527V293.178H85.0561V260.183ZM85.0561 301.132H158.693V329.245H85.0561V301.132ZM85.0561 470.755H158.693V498.789H85.0561V470.755ZM85.0561 539.817V506.822H118.527V539.817H85.0561ZM126.56 593.838V506.822H158.693V593.838H126.56ZM166.647 498.789V462.723H84.9773V337.277H166.647V301.211H229.179V498.868H166.647V498.789Z" fill="#999999"/>
<path d="M739.279 260.183V259.474L731.955 252.151H681.473V206.162H685.962L673.519 193.72V198.13H641.386V161.512L633.353 153.48V293.1H570.821V91.0325L555.149 75.3617V724.638L570.821 708.967V506.822H633.353V646.442L641.386 638.409V601.792H673.519V606.28L685.962 593.838H681.473V547.849H731.955L739.279 540.526V539.817H722.977V506.822H739.279V498.789H722.977V470.755H739.279V462.723H722.977V337.277H739.279V329.245H722.977V301.132H739.279V293.1H722.977V260.104H739.279V260.183ZM673.519 206.162V293.178H641.386V206.162H673.519ZM673.519 593.838H641.386V506.822H673.519V593.838ZM715.023 539.817H681.552V506.822H715.023V539.817ZM715.023 498.789H641.386V470.755H715.023V498.789ZM715.023 462.723H633.353V498.789H570.821V301.132H633.353V337.199H715.023V462.723ZM715.023 329.245H641.386V301.132H715.023V329.245ZM715.023 293.178H681.552V260.183H715.023V293.178Z" fill="#999999"/>
</svg>
