<svg width="800" height="800" viewBox="0 0 800 800" fill="none" xmlns="http://www.w3.org/2000/svg">
<path d="M-3.49691e-05 -1.4552e-05L800 -4.95211e-05L800 800L0 800L-3.49691e-05 -1.4552e-05ZM778.798 21.2016L21.2016 21.2016L21.2017 778.798L778.798 778.798L778.798 21.2016V21.2016Z" fill="#84989E"/>
<path d="M784.994 489.511L784.994 484.306L728.666 484.306L728.666 447.312L749.487 447.312L749.487 458.745L754.692 458.745L754.692 442.107L723.461 442.107L723.461 489.511L784.994 489.511ZM754.599 357.8L754.599 341.162L749.394 341.162L749.394 352.595L728.573 352.595L728.573 315.601L784.901 315.601L784.901 310.396L723.368 310.396L723.368 357.8L754.599 357.8ZM622.052 785L622.052 649.664L703.848 649.664L703.848 756.65L751.16 756.65L751.16 785L761.664 785L761.664 756.65L785.087 756.65L785.087 746.147L761.664 746.147L761.664 704.04L785.087 704.04L785.087 693.537L761.664 693.537L761.664 649.664L785.087 649.664L785.087 639.161L761.664 639.161L761.664 607.372L785.087 607.372L785.087 596.869L751.16 596.869L751.16 639.161L714.445 639.161L714.445 524.089L785.087 524.089L785.087 513.585L675.963 513.585L675.963 405.205L785.087 405.205L785.087 394.795L675.963 394.795L675.963 286.415L785.087 286.415L785.087 275.911L714.445 275.911L714.445 160.839L751.16 160.839L751.16 203.131L785.087 203.131L785.087 192.628L761.664 192.628L761.664 160.839L785.087 160.839L785.087 150.335L761.664 150.335L761.664 106.463L785.087 106.463L785.087 95.9595L761.664 95.9595L761.664 53.853L785.087 53.853L785.087 43.3498L761.664 43.3498L761.664 15L751.16 15L751.16 43.3498L703.848 43.3498L703.848 150.243L622.052 150.243L622.052 15L604.949 15L604.949 785L622.052 785V785ZM714.352 53.853L751.067 53.853L751.067 150.243L714.352 150.243L714.352 53.853ZM714.352 649.664L751.067 649.664L751.067 746.147L714.352 746.147L714.352 649.664ZM703.848 160.746L703.848 180.173L635.158 180.173L635.158 256.485L692.23 256.485L692.23 213.727L662.021 213.727L662.021 233.619L672.617 233.619L672.617 230.273L665.274 230.273L665.274 216.981L688.79 216.981L688.79 253.046L638.318 253.046L638.318 183.333L703.663 183.333L703.663 275.726L644.267 275.726L644.267 286.229L670.479 286.229L670.479 513.492L644.267 513.492L644.267 523.996L703.663 523.996L703.663 616.388L638.318 616.388L638.318 546.676L688.79 546.676L688.79 582.833L665.274 582.833L665.274 569.634L672.617 569.634L672.617 566.288L662.021 566.288L662.021 586.179L692.23 586.179L692.23 543.515L635.158 543.515L635.158 619.827L703.848 619.827L703.848 639.254L622.052 639.254L622.052 160.839L703.848 160.839L703.848 160.746Z" fill="#84989E"/>
<path d="M14.9939 746.147L14.9939 756.65L38.4174 756.65L38.4174 785L48.9208 785L48.9207 756.65L96.2325 756.65L96.2325 649.664L178.029 649.664L178.029 785L195.132 785L195.132 15L178.029 15L178.029 150.243L96.2324 150.243L96.2324 43.3498L48.9207 43.3498L48.9207 15L38.4173 15L38.4173 43.3498L14.9939 43.3498L14.9939 53.853L38.4173 53.853L38.4173 95.9595L14.9939 95.9595L14.9939 106.463L38.4173 106.463L38.4174 150.335L14.9939 150.335L14.9939 160.839L38.4174 160.839L38.4174 192.628L14.9939 192.628L14.9939 203.131L48.9207 203.131L48.9207 160.839L85.6361 160.839L85.6361 275.911L14.9939 275.911L14.9939 286.415L124.118 286.415L124.118 394.795L14.9939 394.795L14.9939 405.205L124.118 405.205L124.118 513.585L14.9939 513.585L14.9939 524.089L85.6361 524.089L85.6361 639.161L48.9207 639.161L48.9207 596.869L14.9939 596.869L14.9939 607.372L38.4174 607.372L38.4174 639.161L14.9939 639.161L14.9939 649.664L38.4174 649.664L38.4174 693.537L14.9939 693.537L14.9939 704.04L38.4174 704.04L38.4174 746.147L14.9939 746.147V746.147ZM85.6361 150.243L48.9207 150.243L48.9207 53.853L85.6361 53.853L85.6361 150.243ZM96.2325 619.827L164.923 619.827L164.923 543.515L107.851 543.515L107.851 586.179L138.06 586.179L138.06 566.288L127.464 566.288L127.464 569.634L134.807 569.634L134.807 582.833L111.197 582.833L111.197 546.768L161.669 546.768L161.669 616.481L96.3254 616.481L96.3254 524.089L155.721 524.089L155.721 513.585L129.323 513.585L129.323 286.322L155.535 286.322L155.535 275.818L96.1395 275.818L96.1395 183.426L161.483 183.426L161.483 253.139L111.012 253.139L111.012 217.074L134.621 217.074L134.621 230.366L127.278 230.366L127.278 233.712L137.874 233.712L137.874 213.821L107.665 213.821L107.665 256.578L164.737 256.578L164.737 180.265L96.0465 180.265L96.0465 160.839L177.843 160.839L177.843 639.254L96.0465 639.254L96.0465 619.827L96.2325 619.827ZM48.9207 649.664L85.6361 649.664L85.6361 746.147L48.9207 746.147L48.9207 649.664ZM71.4147 315.601L71.4147 352.595L50.5938 352.595L50.5938 341.162L45.3886 341.162L45.3886 357.8L76.6199 357.8L76.6199 310.396L14.9939 310.396L14.9939 315.601L71.4147 315.601ZM76.6199 489.511L76.6199 442.107L45.3886 442.107L45.3886 458.745L50.5938 458.745L50.5938 447.312L71.4147 447.312L71.4147 484.306L14.9939 484.306L14.9939 489.511L76.6199 489.511Z" fill="#84989E"/>
</svg>
